<?xml version="1.0" encoding="utf-8"?>
<!-- Generator: Adobe Illustrator 16.2.1, SVG Export Plug-In . SVG Version: 6.00 Build 0)  -->
<!DOCTYPE svg PUBLIC "-//W3C//DTD SVG 1.1//EN" "http://www.w3.org/Graphics/SVG/1.1/DTD/svg11.dtd">
<svg version="1.1" id="Layer_1" xmlns="http://www.w3.org/2000/svg" xmlns:xlink="http://www.w3.org/1999/xlink" x="0px" y="0px"
	 width="32px" height="32px" viewBox="0 0 32 32" enable-background="new 0 0 32 32" xml:space="preserve">
<g>
	<path fill="#CB2027" d="M16,0c-0.856,0-1.551,0.695-1.551,1.552v5.078c0,0.857,0.695,1.552,1.551,1.552
		c0.857,0,1.552-0.695,1.552-1.552V1.552C17.552,0.695,16.857,0,16,0z"/>
	<path fill="#CB2027" d="M9.971,8.661c0.287,0.498,0.809,0.776,1.345,0.776c0.264,0,0.53-0.067,0.774-0.208
		c0.742-0.429,0.997-1.377,0.568-2.12l-2.539-4.398C9.691,1.969,8.742,1.715,8,2.144C7.258,2.572,7.003,3.521,7.432,4.263
		L9.971,8.661z"/>
	<path fill="#CB2027" d="M2.711,10.119l4.398,2.54c0.244,0.141,0.511,0.208,0.774,0.208c0.536,0,1.058-0.278,1.345-0.776
		c0.429-0.742,0.174-1.691-0.568-2.12L4.263,7.432C3.521,7.004,2.572,7.258,2.144,8C1.715,8.742,1.969,9.691,2.711,10.119z"/>
	<path fill="#CB2027" d="M8.181,16c0-0.856-0.695-1.551-1.551-1.551H1.552C0.695,14.449,0,15.144,0,16
		c0,0.857,0.695,1.552,1.552,1.552H6.63C7.486,17.552,8.181,16.857,8.181,16z"/>
	<path fill="#CB2027" d="M9.229,19.909c-0.428-0.742-1.376-0.996-2.119-0.568l-4.398,2.54C1.969,22.309,1.715,23.258,2.144,24
		c0.288,0.498,0.809,0.776,1.345,0.776c0.263,0,0.53-0.067,0.774-0.208l4.398-2.54C9.403,21.6,9.657,20.651,9.229,19.909z"/>
	<path fill="#CB2027" d="M12.091,22.771c-0.742-0.428-1.691-0.174-2.12,0.568l-2.539,4.398C7.004,28.479,7.258,29.428,8,29.856
		c0.245,0.141,0.511,0.208,0.774,0.208c0.536,0,1.058-0.278,1.345-0.776l2.539-4.398C13.087,24.148,12.833,23.2,12.091,22.771z"/>
	<path fill="#CB2027" d="M16,23.819c-0.856,0-1.551,0.695-1.551,1.552v5.078C14.449,31.305,15.144,32,16,32
		c0.857,0,1.552-0.695,1.552-1.552v-5.078C17.552,24.514,16.857,23.819,16,23.819z"/>
	<path fill="#CB2027" d="M22.029,23.339c-0.428-0.741-1.377-0.996-2.119-0.568c-0.742,0.429-0.997,1.377-0.568,2.12l2.539,4.397
		c0.288,0.498,0.809,0.776,1.345,0.776c0.263,0,0.53-0.067,0.774-0.208c0.742-0.428,0.996-1.377,0.568-2.12L22.029,23.339z"/>
	<path fill="#CB2027" d="M29.289,21.88l-4.397-2.54c-0.742-0.428-1.691-0.174-2.119,0.568c-0.428,0.742-0.174,1.691,0.568,2.119
		l4.397,2.539c0.244,0.141,0.511,0.208,0.774,0.208c0.536,0,1.058-0.278,1.345-0.776C30.285,23.258,30.031,22.309,29.289,21.88z"/>
	<path fill="#CB2027" d="M30.448,14.448l-5.077,0c-0.857,0-1.552,0.694-1.552,1.552c0,0.856,0.695,1.551,1.552,1.551l5.077,0
		c0.857,0,1.552-0.694,1.552-1.552C32,15.143,31.305,14.448,30.448,14.448z"/>
	<path fill="#CB2027" d="M22.771,12.089c0.288,0.498,0.809,0.776,1.345,0.776c0.263,0,0.53-0.067,0.774-0.208l4.397-2.538
		C30.03,9.69,30.285,8.742,29.856,8c-0.428-0.742-1.376-0.996-2.12-0.568L23.339,9.97C22.598,10.398,22.343,11.347,22.771,12.089z"
		/>
	<path fill="#CB2027" d="M19.909,9.228c0.244,0.142,0.511,0.208,0.774,0.208c0.536,0,1.058-0.278,1.345-0.776l2.539-4.397
		c0.428-0.742,0.174-1.691-0.568-2.12c-0.742-0.429-1.691-0.174-2.12,0.568l-2.539,4.397C18.913,7.85,19.167,8.799,19.909,9.228z"/>
</g>
</svg>
